<svg width="19" height="18" viewBox="0 0 19 18" fill="none" xmlns="http://www.w3.org/2000/svg">
<path d="M13.24 8.50943L14.81 6.93943L11.06 3.18943L9.49 4.75943L5.35 0.629434C4.57 -0.150566 3.3 -0.150566 2.52 0.629434L0.62 2.52943C-0.16 3.30943 -0.16 4.57943 0.62 5.35943L4.75 9.48943L0.15 14.0994C0.0500001 14.1994 0 14.3194 0 14.4594V17.4994C0 17.7794 0.22 17.9994 0.5 17.9994H3.54C3.67 17.9994 3.8 17.9494 3.89 17.8494L8.51 13.2294L12.64 17.3594C13.96 18.6794 15.4 17.4294 15.47 17.3594L17.37 15.4594C18.15 14.6794 18.15 13.4094 17.37 12.6294L13.24 8.50943ZM6.18 8.06943L2.04 3.93943L3.93 2.03943L5.2 3.30943L4.73 3.79943C4.34 4.18943 4.34 4.81943 4.73 5.20943C5.12 5.59943 5.75 5.59943 6.14 5.20943L6.62 4.72943L8.07 6.17943L6.18 8.06943ZM14.06 15.9594L9.93 11.8294L11.83 9.92943L13.28 11.3794L12.8 11.8594C12.41 12.2494 12.41 12.8794 12.8 13.2694C13.19 13.6594 13.82 13.6594 14.21 13.2694L14.69 12.7894L15.96 14.0594L14.06 15.9594Z" fill="black"/>
<path d="M17.7099 4.03944C18.0999 3.64944 18.0999 3.01944 17.7099 2.62944L15.3699 0.28944C14.8999 -0.18056 14.2499 -0.000559539 13.9599 0.28944L12.1299 2.11944L15.8799 5.86944L17.7099 4.03944Z" fill="black"/>
</svg>
