<svg width="363" height="447" viewBox="0 0 363 447" fill="none" xmlns="http://www.w3.org/2000/svg">
<path d="M247.203 187.311V3H360V211.471" stroke="#CCDDE2" stroke-width="4.82" stroke-miterlimit="10"/>
<path d="M258.415 126.492V137.277H272.824V117.485H258.415V126.492ZM260.783 119.252H270.438V126.492H260.783V119.252ZM260.783 128.261H270.438V135.508H260.783V128.261Z" fill="#D7E8F0"/>
<path d="M283.82 126.492V137.277H298.229V117.485H283.82V126.492ZM286.198 119.258H295.87V126.492H286.198V119.258ZM286.198 128.268H295.87V135.508H286.198V128.268Z" fill="#D7E8F0"/>
<path d="M308.532 126.492V137.277H322.941V117.485H308.532V126.492ZM310.901 119.252H320.573V126.492H310.901V119.252ZM310.901 128.261H320.573V135.508H310.901V128.261Z" fill="#D7E8F0"/>
<path d="M331.794 126.492V137.277H346.203V117.485H331.794V126.492ZM334.158 119.252H343.835V126.492H334.158V119.252ZM334.158 128.261H343.835V135.508H334.158V128.261Z" fill="#D7E8F0"/>
<path d="M242.227 353.375C238.422 356.247 234.653 359.442 230.637 362.345C229.532 363.151 228.402 363.931 227.246 364.684C225.963 365.52 224.639 366.315 223.283 367.043C223.185 366.831 223.065 366.625 222.923 366.426C220.649 363.056 214.48 360.922 213.715 357.1C213.017 353.53 217.317 350.251 216.615 346.752C215.822 342.795 209.32 340.446 208.118 336.58C207.352 334.18 208.037 331.413 207.757 328.939C207.438 326.172 206.813 323.43 205.889 320.741C206.339 320.718 206.789 320.708 207.24 320.698C216.381 320.583 225.377 324.425 228.336 329.825C230.718 334.207 229.506 339.232 232.672 343.328C232.862 343.593 233.078 343.847 233.316 344.089C233.736 344.519 234.186 344.931 234.667 345.323L235.671 346.105C235.837 346.23 236.022 346.344 236.189 346.479C236.355 346.614 236.535 346.732 236.702 346.867C238.278 347.996 239.886 349.132 240.93 350.48C241.025 350.597 241.109 350.719 241.182 350.844C241.277 350.969 241.362 351.099 241.435 351.232C241.529 351.377 241.601 351.515 241.669 351.65C241.736 351.784 241.822 351.987 241.894 352.128C241.993 352.381 242.088 352.62 242.16 352.87C242.16 352.934 242.16 352.988 242.187 353.038C242.214 353.089 242.187 353.079 242.187 353.102C242.193 353.122 242.193 353.143 242.187 353.163C242.187 353.207 242.187 353.237 242.214 353.268V353.288C242.207 353.317 242.212 353.348 242.227 353.375Z" fill="white"/>
<path d="M242.286 353.584H242.298L242.286 353.594V353.584Z" fill="white"/>
<path d="M242.313 353.566C242.425 353.491 242.52 353.441 242.632 353.366C242.538 353.431 242.425 353.502 242.326 353.576C242.326 353.576 242.326 353.576 242.299 353.576L242.313 353.566Z" fill="white"/>
<path d="M274.315 336.971C274.218 338.147 274.218 339.325 274.315 340.5C271.568 341.002 268.862 341.555 266.21 342.223C264.562 342.63 262.945 343.079 261.328 343.591C256.844 344.953 252.62 346.755 248.77 348.95C249.609 347.879 250.2 346.71 250.517 345.492C250.517 345.442 250.544 345.388 250.558 345.327C251.255 342.802 251.31 340.15 252.899 337.736C255.857 333.287 264.507 330.062 273.563 329.853H273.729C274.553 329.853 275.391 329.853 276.229 329.883C275.291 332.195 274.65 334.568 274.315 336.971Z" fill="white"/>
<path d="M270.199 333.722L266.182 342.209C264.534 342.617 262.918 343.065 261.301 343.578C263.881 339.823 266.835 336.429 270.199 333.722Z" fill="white"/>
<path d="M242.33 353.599C242.33 353.531 242.316 353.464 242.29 353.399C242.317 353.524 242.33 353.599 242.33 353.599Z" fill="white"/>
<path d="M211.787 325.191C220.793 333.931 226.773 348.786 230.637 362.345C229.532 363.152 228.402 363.932 227.246 364.685L211.787 325.191Z" fill="white"/>
<path d="M243.587 339.927C241.786 344.042 241.718 348.199 241.93 350.831C241.984 351.682 242.104 352.529 242.29 353.369L243.587 339.927Z" fill="white"/>
<path d="M242.227 353.375C238.422 356.247 234.653 359.442 230.637 362.345C229.532 363.151 228.402 363.931 227.246 364.684C225.963 365.52 224.639 366.315 223.283 367.043C223.185 366.831 223.065 366.625 222.923 366.426C220.649 363.056 214.48 360.922 213.715 357.1C213.017 353.53 217.317 350.251 216.615 346.752C215.822 342.795 209.32 340.446 208.118 336.58C207.352 334.18 208.037 331.413 207.757 328.939C207.438 326.172 206.813 323.43 205.889 320.741C206.339 320.718 206.789 320.708 207.24 320.698C216.381 320.583 225.377 324.425 228.336 329.825C230.718 334.207 229.506 339.232 232.672 343.328C232.862 343.593 233.078 343.847 233.316 344.089C233.736 344.519 234.186 344.931 234.667 345.323L235.671 346.105C235.837 346.23 236.022 346.344 236.189 346.479C236.355 346.614 236.535 346.732 236.702 346.867C238.278 347.996 239.886 349.132 240.93 350.48C241.025 350.597 241.109 350.719 241.182 350.844C241.277 350.969 241.362 351.099 241.435 351.232C241.529 351.377 241.601 351.515 241.669 351.65C241.736 351.784 241.822 351.987 241.894 352.128C241.993 352.381 242.088 352.62 242.16 352.87C242.16 352.934 242.16 352.988 242.187 353.038C242.214 353.089 242.187 353.079 242.187 353.102C242.193 353.122 242.193 353.143 242.187 353.163C242.187 353.207 242.187 353.237 242.214 353.268V353.288C242.207 353.317 242.212 353.348 242.227 353.375Z" stroke="#CCDDE2" stroke-width="4.65" stroke-miterlimit="10"/>
<path d="M250.517 345.502C250.198 346.717 249.607 347.882 248.77 348.95" stroke="#CCDDE2" stroke-width="4.65" stroke-miterlimit="10"/>
<path d="M274.301 340.499C274.204 339.324 274.204 338.146 274.301 336.97C274.637 334.571 275.278 332.201 276.215 329.892C275.377 329.852 274.54 329.852 273.716 329.862H273.549C264.494 330.071 255.844 333.296 252.885 337.746C251.296 340.159 251.242 342.802 250.544 345.336" stroke="#CCDDE2" stroke-width="4.65" stroke-miterlimit="10"/>
<path d="M250.521 345.506C250.521 345.452 250.548 345.401 250.562 345.337" stroke="#CCDDE2" stroke-width="4.65" stroke-miterlimit="10"/>
<path d="M250.558 345.323C250.558 345.383 250.531 345.437 250.517 345.488C250.2 346.707 249.609 347.878 248.77 348.949" stroke="#CCDDE2" stroke-width="4.65" stroke-miterlimit="10"/>
<path d="M250.521 345.506C250.521 345.452 250.548 345.401 250.562 345.337" stroke="#CCDDE2" stroke-width="4.65" stroke-miterlimit="10"/>
<path d="M242.286 353.535V353.586" stroke="#CCDDE2" stroke-width="4.65" stroke-miterlimit="10"/>
<path d="M270.199 333.722C266.835 336.418 263.895 339.823 261.301 343.591" stroke="#CCDDE2" stroke-width="4.65" stroke-miterlimit="10"/>
<path d="M242.33 353.599C242.33 353.531 242.316 353.464 242.29 353.399C242.317 353.524 242.33 353.599 242.33 353.599Z" stroke="#CCDDE2" stroke-width="4.65" stroke-miterlimit="10"/>
<path d="M211.787 325.191C220.793 333.931 226.773 348.786 230.637 362.345" stroke="#CCDDE2" stroke-width="4.65" stroke-miterlimit="10"/>
<path d="M243.587 339.927C241.786 344.042 241.718 348.199 241.93 350.831C241.984 351.682 242.104 352.529 242.29 353.369" stroke="#CCDDE2" stroke-width="4.65" stroke-miterlimit="10"/>
<path d="M339.368 242.904C345.1 258.975 351.012 276.29 350.526 292.809C350.008 310.218 338.166 324.83 316.948 332.245C303.138 337.068 288.292 337.955 274.301 340.493C271.555 340.995 268.848 341.548 266.196 342.215C264.548 342.623 262.931 343.071 261.315 343.584C256.834 344.949 252.615 346.753 248.77 348.95" stroke="#CCDDE2" stroke-width="4.65" stroke-miterlimit="10"/>
<path d="M110.256 151.433C110.256 151.433 83.5273 146.866 61.2785 152.495C58.507 153.179 55.8214 154.045 53.2543 155.084C40.6463 160.19 31.1317 169.786 31.8296 187.216C32.2033 196.316 31.4919 205.292 29.0964 214.002C28.3129 216.828 27.3447 219.626 26.192 222.395C23.3682 229.163 19.2927 235.603 14.0837 241.526C-2.50491 260.354 0.0076952 279.924 18.4065 298.071C19.3701 299.022 20.3608 299.962 21.3784 300.882" stroke="#CCDDE2" stroke-width="4.65" stroke-miterlimit="10"/>
<path d="M305.015 143.095H140.498C121.523 143.095 106.141 154.609 106.141 168.813V284.876C106.141 299.079 121.523 310.593 140.498 310.593H305.015C323.99 310.593 339.372 299.079 339.372 284.876V168.813C339.372 154.609 323.99 143.095 305.015 143.095Z" fill="#FFB703"/>
<path d="M302.732 140.648H139.377C119.141 140.648 102.737 152.927 102.737 168.074V283.166C102.737 298.313 119.141 310.593 139.377 310.593H302.732C322.968 310.593 339.372 298.313 339.372 283.166V168.074C339.372 152.927 322.968 140.648 302.732 140.648Z" stroke="black" stroke-width="4.65" stroke-miterlimit="10"/>
<path d="M300.427 146.388H145.086C126.111 146.388 110.729 157.902 110.729 172.106V281.579C110.729 295.783 126.111 307.297 145.086 307.297H300.427C319.402 307.297 334.784 295.783 334.784 281.579V172.106C334.784 157.902 319.402 146.388 300.427 146.388Z" fill="#FFB703"/>
<path d="M308.311 154.834H261.396C255.02 154.834 249.846 159.001 249.846 164.127V245.412C249.846 250.549 255.02 254.725 261.396 254.725H308.311C314.701 254.725 319.893 250.549 319.893 245.412V164.127C319.893 159.001 314.701 154.834 308.311 154.834ZM316.57 245.766C316.562 247.475 315.651 249.112 314.036 250.32C312.421 251.528 310.234 252.209 307.951 252.214H261.788C259.501 252.209 257.311 251.527 255.693 250.318C254.075 249.109 253.162 247.471 253.151 245.76V163.794C253.162 162.082 254.075 160.444 255.693 159.235C257.311 158.025 259.501 157.344 261.788 157.339H307.951C310.236 157.344 312.424 158.026 314.039 159.236C315.654 160.445 316.564 162.084 316.57 163.794V245.766Z" fill="#D7E8F0"/>
<path d="M307.694 264.264H260.779C254.407 264.264 249.229 268.43 249.229 273.557V285.92C249.229 291.06 254.407 295.237 260.779 295.237H307.694C314.084 295.237 319.276 291.06 319.276 285.92V273.557C319.276 268.43 314.084 264.264 307.694 264.264ZM315.953 286.277C315.947 287.987 315.037 289.625 313.422 290.834C311.807 292.043 309.618 292.724 307.334 292.729H261.171C258.885 292.724 256.694 292.044 255.076 290.835C253.458 289.626 252.545 287.988 252.534 286.277V273.223C252.545 271.512 253.458 269.873 255.076 268.664C256.694 267.455 258.884 266.774 261.171 266.769H307.334C309.618 266.774 311.807 267.456 313.422 268.665C315.037 269.875 315.947 271.513 315.953 273.223V286.277Z" fill="#D7E8F0"/>
<path d="M202.557 273.251L133.807 272.496C133.067 272.487 132.362 272.259 131.847 271.861C131.332 271.464 131.049 270.929 131.06 270.376C131.059 270.184 131.095 269.993 131.168 269.81C131.345 269.374 131.707 268.993 132.198 268.725C132.689 268.456 133.284 268.314 133.892 268.32L202.642 269.068C202.128 269.666 201.84 270.356 201.809 271.067C201.772 271.834 202.032 272.592 202.557 273.251Z" fill="white"/>
<path d="M219.226 271.902C219.052 272.337 218.695 272.718 218.208 272.989C217.721 273.26 217.131 273.406 216.524 273.405L211.571 273.351C212.103 272.73 212.392 272.01 212.407 271.272C212.422 270.535 212.163 269.809 211.657 269.175L216.61 269.229C217.348 269.241 218.051 269.47 218.566 269.867C219.08 270.264 219.364 270.797 219.357 271.349C219.348 271.537 219.304 271.723 219.226 271.902Z" fill="white"/>
<path d="M219.064 280.19C218.89 280.624 218.532 281.004 218.046 281.273C217.558 281.542 216.968 281.686 216.362 281.683L148.031 280.935C148.669 280.365 149.079 279.672 149.212 278.935C149.345 278.198 149.196 277.448 148.783 276.772L216.425 277.493C217.164 277.504 217.868 277.733 218.382 278.13C218.897 278.527 219.181 279.06 219.172 279.613C219.175 279.809 219.138 280.003 219.064 280.19Z" fill="#D7E8F0"/>
<path d="M139.809 280.841L133.649 280.773C132.911 280.765 132.207 280.539 131.692 280.143C131.176 279.748 130.891 279.216 130.898 278.663C130.901 278.468 130.939 278.274 131.01 278.087C131.183 277.653 131.54 277.273 132.028 277.006C132.516 276.738 133.107 276.597 133.712 276.604L139.201 276.668C138.88 277.166 138.699 277.709 138.67 278.262C138.624 279.196 139.028 280.111 139.809 280.841Z" fill="#FBFEFF"/>
<path d="M197.693 289.857L133.901 289.163C133.163 289.151 132.461 288.921 131.947 288.524C131.433 288.128 131.148 287.595 131.154 287.043C131.156 286.855 131.195 286.669 131.271 286.49C131.444 286.055 131.801 285.673 132.288 285.402C132.775 285.131 133.366 284.985 133.973 284.987L197.671 285.688C197.151 286.314 196.875 287.036 196.875 287.772C196.875 288.51 197.151 289.231 197.671 289.857H197.693Z" fill="white"/>
<path d="M219.33 288.573C219.157 289.007 218.799 289.387 218.312 289.656C217.825 289.925 217.233 290.068 216.628 290.063L206.605 289.965L197.694 289.874C197.173 289.248 196.898 288.526 196.898 287.789C196.898 287.052 197.173 286.33 197.694 285.704L206.771 285.805L216.678 285.913C217.415 285.922 218.118 286.149 218.632 286.545C219.147 286.94 219.432 287.472 219.424 288.023C219.428 288.209 219.396 288.394 219.33 288.573Z" fill="#D7E8F0"/>
<path d="M211.544 273.351C210.852 274.161 209.79 274.756 208.557 275.024C207.323 275.293 206.002 275.217 204.837 274.811C203.672 274.405 202.744 273.697 202.225 272.817C201.705 271.938 201.63 270.947 202.013 270.029C202.395 269.111 203.21 268.328 204.305 267.826C205.401 267.324 206.702 267.136 207.969 267.298C209.235 267.459 210.379 267.96 211.19 268.705C212.001 269.451 212.423 270.392 212.377 271.353C212.344 272.063 212.057 272.753 211.544 273.351Z" fill="white"/>
<g opacity="0.72">
<path opacity="0.72" d="M209.55 270.925C209.43 271.399 209.132 271.838 208.69 272.189C208.474 272.367 208.239 272.532 207.987 272.681C207.848 272.755 207.123 273.19 206.983 273.136C206.028 272.775 204.826 271.868 204.678 270.982C204.653 270.843 204.653 270.702 204.678 270.564C204.73 270.325 204.895 270.109 205.144 269.953C205.391 269.798 205.705 269.715 206.028 269.718C206.24 269.724 206.447 269.767 206.632 269.843C206.818 269.92 206.976 270.028 207.096 270.159C207.231 270.037 207.401 269.94 207.594 269.874C207.786 269.808 207.996 269.776 208.208 269.779C208.398 269.783 208.586 269.817 208.758 269.879C208.93 269.94 209.084 270.027 209.21 270.134C209.336 270.241 209.431 270.367 209.489 270.503C209.548 270.639 209.568 270.782 209.55 270.925Z" fill="#3FBDF1"/>
</g>
<path d="M148.022 280.936C147.518 281.388 146.884 281.751 146.169 281.996C145.453 282.242 144.673 282.365 143.885 282.356C143.098 282.347 142.323 282.206 141.618 281.944C140.913 281.682 140.295 281.305 139.809 280.841C139.032 280.111 138.631 279.196 138.679 278.263C138.708 277.71 138.889 277.167 139.21 276.668C139.662 275.981 140.37 275.406 141.249 275.013C142.128 274.62 143.14 274.426 144.163 274.454C145.148 274.477 146.105 274.708 146.923 275.12C147.741 275.532 148.387 276.108 148.788 276.783C149.201 277.459 149.349 278.209 149.216 278.946C149.083 279.682 148.674 280.376 148.036 280.946L148.022 280.936Z" fill="white"/>
<g opacity="0.72">
<path opacity="0.72" d="M146.424 278.114C146.302 278.588 146.002 279.025 145.559 279.375C145.348 279.556 145.112 279.721 144.857 279.867C144.722 279.941 143.992 280.379 143.857 280.322C142.903 279.965 141.7 279.058 141.547 278.168C141.522 278.03 141.522 277.889 141.547 277.75C141.594 277.553 141.717 277.37 141.902 277.226C142.088 277.081 142.327 276.981 142.588 276.938C142.849 276.895 143.122 276.911 143.371 276.984C143.621 277.057 143.835 277.185 143.988 277.349C144.166 277.164 144.424 277.028 144.719 276.966C145.013 276.904 145.326 276.919 145.608 277.008C145.89 277.097 146.123 277.255 146.27 277.456C146.417 277.657 146.467 277.889 146.415 278.114H146.424Z" fill="#3FBDF1"/>
</g>
<path d="M206.605 289.965C205.969 290.683 205.037 291.227 203.951 291.514C202.865 291.801 201.683 291.815 200.586 291.554C199.488 291.293 198.534 290.771 197.869 290.067C197.203 289.364 196.861 288.517 196.896 287.656C196.93 286.965 197.201 286.293 197.684 285.704C198.055 285.261 198.539 284.876 199.109 284.574C199.679 284.271 200.324 284.056 201.005 283.941C201.687 283.826 202.393 283.813 203.081 283.903C203.769 283.993 204.427 284.184 205.016 284.465C205.605 284.747 206.114 285.113 206.513 285.542C206.912 285.972 207.194 286.456 207.341 286.967C207.489 287.478 207.5 288.007 207.374 288.521C207.247 289.035 206.986 289.526 206.605 289.965Z" fill="white"/>
<g opacity="0.72">
<path opacity="0.72" d="M204.646 287.491C204.525 287.965 204.225 288.404 203.781 288.755C203.57 288.936 203.334 289.101 203.079 289.247C202.944 289.321 202.214 289.756 202.079 289.702C201.125 289.341 199.923 288.438 199.769 287.548C199.745 287.409 199.745 287.269 199.769 287.13C199.816 286.933 199.94 286.75 200.125 286.605C200.31 286.461 200.549 286.361 200.81 286.318C201.072 286.275 201.345 286.291 201.594 286.364C201.843 286.437 202.057 286.564 202.21 286.729C202.389 286.544 202.646 286.409 202.939 286.348C203.233 286.286 203.546 286.3 203.828 286.388C204.109 286.477 204.343 286.634 204.489 286.834C204.636 287.034 204.688 287.266 204.637 287.491H204.646Z" fill="#3FBDF1"/>
</g>
<path d="M130.533 164.7L130.65 176.898C130.68 179.025 131.808 181.062 133.797 182.582C135.787 184.101 138.485 184.986 141.326 185.051L157.456 185.26C158.842 185.276 160.22 185.083 161.505 184.693C162.791 184.303 163.959 183.724 164.939 182.989C165.92 182.255 166.694 181.381 167.214 180.418C167.735 179.456 167.992 178.425 167.97 177.387L167.848 165.188C167.82 163.061 166.694 161.024 164.704 159.505C162.715 157.986 160.017 157.102 157.176 157.038L141.047 156.826C139.66 156.81 138.283 157.003 136.997 157.393C135.712 157.783 134.544 158.362 133.563 159.097C132.583 159.831 131.809 160.705 131.288 161.668C130.768 162.63 130.511 163.661 130.533 164.7Z" fill="white"/>
<path d="M133.014 167.761L133.1 176.592C133.126 178.44 134.106 180.208 135.834 181.527C137.562 182.846 139.904 183.614 142.371 183.67L156.38 183.852C157.584 183.866 158.781 183.699 159.897 183.36C161.014 183.022 162.028 182.519 162.88 181.881C163.733 181.244 164.406 180.485 164.859 179.649C165.312 178.814 165.538 177.919 165.521 177.017V176.42C163.553 173.407 159.721 168.897 155.614 171.594C149.72 175.47 147.023 172.52 143.587 168.715C140.719 165.53 136.355 163.204 133.014 167.761Z" fill="#FFB703"/>
<path d="M159.369 166.541C161.149 165.656 161.607 163.83 160.393 162.463C159.18 161.095 156.753 160.704 154.974 161.589C153.195 162.474 152.736 164.3 153.95 165.667C155.164 167.035 157.59 167.426 159.369 166.541Z" fill="#FFB703"/>
<path d="M224.229 169.635C221.708 169.634 219.249 170.218 217.189 171.306C215.129 172.393 213.569 173.931 212.724 175.709C211.879 177.487 211.789 179.417 212.468 181.234C213.147 183.051 214.561 184.666 216.516 185.858L184.545 234.634C184.348 234.61 184.15 234.596 183.951 234.59C183.441 234.595 182.934 234.654 182.447 234.765L161.648 215.421C162.576 214.462 163.102 213.317 163.159 212.134C163.215 210.949 162.798 209.78 161.962 208.774C161.127 207.768 159.91 206.971 158.466 206.485C157.023 205.999 155.419 205.846 153.859 206.045C152.299 206.244 150.854 206.786 149.707 207.603C148.56 208.419 147.765 209.473 147.422 210.63C147.078 211.786 147.204 212.993 147.78 214.096C148.357 215.199 149.36 216.149 150.661 216.823L136.085 247.873C134.814 247.93 133.609 248.315 132.674 248.961C131.739 249.608 131.131 250.477 130.956 251.421C130.78 252.365 131.045 253.325 131.708 254.139C132.371 254.953 133.39 255.57 134.591 255.885C135.793 256.2 137.103 256.194 138.299 255.868C139.496 255.542 140.504 254.916 141.154 254.097C141.804 253.277 142.055 252.315 141.863 251.373C141.672 250.43 141.051 249.567 140.106 248.928L154.682 217.875C154.862 217.875 155.038 217.895 155.218 217.895C156.302 217.895 157.374 217.73 158.37 217.41L179.164 236.747C178.726 237.342 178.494 238.009 178.489 238.688C178.468 239.239 178.595 239.787 178.861 240.301C179.128 240.814 179.53 241.282 180.043 241.677C180.556 242.072 181.169 242.386 181.847 242.6C182.525 242.815 183.253 242.925 183.989 242.925C184.725 242.925 185.453 242.815 186.131 242.6C186.809 242.386 187.422 242.072 187.935 241.677C188.448 241.282 188.85 240.814 189.116 240.301C189.383 239.787 189.51 239.239 189.489 238.688C189.486 237.773 189.07 236.884 188.31 236.167L220.28 187.391C221.961 187.834 223.75 187.996 225.523 187.867C227.296 187.737 229.01 187.318 230.544 186.64C232.078 185.961 233.395 185.04 234.402 183.94C235.41 182.84 236.083 181.589 236.376 180.273C236.669 178.957 236.573 177.61 236.096 176.325C235.619 175.04 234.772 173.849 233.614 172.835C232.456 171.822 231.016 171.01 229.395 170.457C227.774 169.904 226.01 169.624 224.229 169.635Z" fill="#D7E8F0"/>
<path d="M262.864 187.212H305.641" stroke="white" stroke-width="4.65" stroke-miterlimit="10"/>
<path d="M262.864 192.157H305.641" stroke="white" stroke-width="4.65" stroke-miterlimit="10"/>
<path d="M262.864 197.099H305.641" stroke="white" stroke-width="4.65" stroke-miterlimit="10"/>
<path d="M262.864 202.04H305.641" stroke="white" stroke-width="4.65" stroke-miterlimit="10"/>
<path d="M262.864 206.984H305.641" stroke="white" stroke-width="4.65" stroke-miterlimit="10"/>
<path d="M262.864 235.85H305.641" stroke="white" stroke-width="4.65" stroke-miterlimit="10"/>
<path d="M262.864 240.212H305.641" stroke="white" stroke-width="4.65" stroke-miterlimit="10"/>
<path d="M296.654 273.61C297.084 273.877 297.428 274.213 297.662 274.593C297.895 274.972 298.013 275.387 298.004 275.805L297.905 285.691C297.902 286.064 297.8 286.433 297.605 286.776C297.411 287.12 297.128 287.431 296.772 287.693C296.417 287.954 295.996 288.161 295.533 288.3C295.071 288.439 294.576 288.509 294.078 288.505L274.265 288.377C273.261 288.37 272.301 288.064 271.596 287.528C270.892 286.991 270.501 286.268 270.51 285.515L270.627 275.623C270.665 274.877 271.082 274.171 271.792 273.649C272.503 273.126 273.454 272.827 274.45 272.812L294.263 272.94C295.14 272.945 295.987 273.183 296.654 273.61Z" fill="white"/>
<path d="M293.853 275.418L284.613 281.36C284.495 281.436 284.345 281.477 284.189 281.477C284.035 281.477 283.884 281.436 283.766 281.36L274.36 275.293C274.256 275.228 274.182 275.14 274.148 275.041C274.115 274.942 274.124 274.839 274.174 274.744C274.224 274.65 274.312 274.569 274.426 274.514C274.54 274.459 274.674 274.432 274.81 274.437L293.456 274.562C293.587 274.565 293.714 274.598 293.819 274.656C293.925 274.715 294.004 274.795 294.047 274.888C294.09 274.981 294.094 275.081 294.06 275.176C294.025 275.27 293.953 275.355 293.853 275.418Z" fill="#FFB703"/>
<path d="M284.874 214.928C282.9 214.927 280.97 215.364 279.328 216.184C277.685 217.003 276.405 218.17 275.648 219.534C274.892 220.899 274.693 222.401 275.077 223.851C275.461 225.3 276.411 226.631 277.806 227.676C279.201 228.722 280.979 229.434 282.915 229.723C284.85 230.011 286.857 229.864 288.681 229.299C290.505 228.733 292.064 227.776 293.161 226.548C294.258 225.319 294.843 223.875 294.843 222.397C294.844 221.417 294.586 220.446 294.086 219.54C293.585 218.634 292.851 217.811 291.925 217.117C290.999 216.424 289.9 215.873 288.69 215.498C287.48 215.122 286.184 214.929 284.874 214.928ZM284.874 228.074C284.487 228.074 284.116 227.959 283.842 227.754C283.568 227.549 283.415 227.271 283.415 226.981C283.415 226.692 283.568 226.414 283.842 226.209C284.116 226.004 284.487 225.889 284.874 225.889C285.261 225.889 285.632 226.004 285.905 226.209C286.179 226.414 286.333 226.692 286.333 226.981C286.333 227.271 286.179 227.549 285.905 227.754C285.632 227.959 285.261 228.074 284.874 228.074ZM286.706 219.674C286.4 221.295 286.139 222.997 285.495 224.568C285.435 224.653 285.345 224.725 285.235 224.775C285.125 224.825 284.998 224.851 284.869 224.851C284.74 224.851 284.614 224.825 284.504 224.775C284.393 224.725 284.303 224.653 284.243 224.568C283.787 223.385 283.438 222.18 283.199 220.962C282.996 220.078 282.298 218.639 282.969 217.783C283.55 217.011 285.193 216.92 286.121 217.321C287.305 217.797 286.846 218.845 286.706 219.661V219.674Z" fill="white"/>
<path d="M224.404 185.655C229.353 185.655 233.365 182.653 233.365 178.948C233.365 175.244 229.353 172.24 224.404 172.24C219.456 172.24 215.444 175.244 215.444 178.948C215.444 182.653 219.456 185.655 224.404 185.655Z" fill="white"/>
<path d="M284.802 169.338C286.456 169.338 287.796 168.335 287.796 167.097C287.796 165.859 286.456 164.855 284.802 164.855C283.148 164.855 281.807 165.859 281.807 167.097C281.807 168.335 283.148 169.338 284.802 169.338Z" fill="white"/>
<path d="M276.44 177.232C276.44 175.572 277.321 173.98 278.889 172.806C280.458 171.632 282.584 170.973 284.802 170.973C287.02 170.973 289.146 171.632 290.715 172.806C292.283 173.98 293.164 175.572 293.164 177.232H276.44Z" fill="white"/>
<path d="M227.21 391.484C227.208 391.993 226.999 392.489 226.61 392.907C226.222 393.325 225.672 393.644 225.035 393.823L193.672 402.586C193.672 402.586 192.177 400.51 189.57 397.042L171.658 374.61C166.817 393.25 161.418 411.913 158.073 423.545L154.848 435.126L167.772 438.308C168.549 438.448 169.24 438.779 169.735 439.249C170.231 439.718 170.502 440.298 170.505 440.896C170.504 441.302 170.379 441.702 170.141 442.067C169.903 442.431 169.557 442.751 169.13 443C168.702 443.25 168.205 443.424 167.675 443.508C167.145 443.593 166.596 443.586 166.07 443.488L136.116 437.806V432.325L135.405 432.22L136.022 368.291L106.753 363.11C103.083 363.966 99.2063 364.751 95.2437 365.388C95.201 365.393 95.1591 365.4 95.1177 365.409C85.4999 367.296 75.454 367.62 65.6553 366.359C65.5697 366.359 65.4707 366.329 65.3896 366.315C64.6781 366.214 63.9667 366.096 63.2687 365.978C63.0571 365.948 62.85 365.918 62.6383 365.874C62.0259 365.769 61.4136 365.634 60.8012 365.51C60.4634 365.436 60.1302 365.375 59.8105 365.301C59.4908 365.227 59.2522 365.166 58.973 365.092C53.6992 363.852 48.8284 361.803 44.6718 359.075C41.4847 357.072 38.7825 354.673 36.6837 351.984C35.7831 350.919 34.9411 349.799 34.1576 348.65C29.4025 341.622 28.4119 339.233 29.7943 339.169C26.7499 338.366 23.8009 337.374 20.9776 336.202C20.9776 336.202 14.7546 309.019 28.3263 281.66C28.0665 279.967 28.1133 278.256 28.4659 276.573C31.3253 261.224 47.0629 245.446 65.8399 239.055C75.8993 235.631 92.3034 230.376 87.0035 219.914C85.3284 216.604 82.9509 213.752 82.5006 210.318C82.4601 209.981 82.406 209.681 82.3745 209.347C81.6225 201.258 87.913 193.576 98.0986 190.809C101.431 189.869 104.993 189.474 108.547 189.648C112.101 189.823 115.563 190.563 118.704 191.82C119.789 192.248 120.762 192.819 121.577 193.505C124.675 193.566 128.565 193.974 130.393 194.611C133.491 195.696 135.972 197.597 137.828 199.737C141.25 203.727 142.624 208.51 141.696 213.2C141.162 215.795 139.927 218.281 138.066 220.507C137.149 221.622 136.084 222.666 134.887 223.621C133.838 224.444 132.348 225.644 130.911 226.085C130.927 226.095 130.947 226.1 130.967 226.1C130.988 226.1 131.008 226.095 131.024 226.085L130.605 231.097C139.205 229.631 162.184 223.591 179.029 198.652C180.245 196.721 181.497 194.8 182.811 192.899C186.702 187.239 190.872 181.61 196.397 176.743C197.747 175.564 199.747 174.498 201.895 175.011C203.777 175.459 205.047 177.033 203.736 178.354L194.695 187.603L197.581 187.324C197.896 187.381 198.19 187.488 198.443 187.639C198.696 187.79 198.903 187.98 199.047 188.197C199.192 188.413 199.273 188.651 199.282 188.893C199.292 189.135 199.23 189.376 199.103 189.599L197.275 192.848L198.139 192.086C198.734 191.56 199.577 191.227 200.493 191.156C201.408 191.085 202.325 191.281 203.051 191.704C203.777 192.128 204.257 192.744 204.39 193.426C204.523 194.108 204.298 194.802 203.763 195.362L198.999 199.97C198.361 200.578 197.551 201.074 196.626 201.419L187.197 204.824C189.986 207.39 192.579 210.071 194.965 212.856C189.787 220.284 183.718 227.344 176.832 233.949C165.223 245.143 148.508 257.654 128.101 262.885C127.651 272.138 125.467 281.306 122.076 290.275C132.663 290.275 142.763 290.275 152.975 290.275L160.675 274.548C161.029 273.822 161.673 273.195 162.518 272.753C163.364 272.31 164.371 272.073 165.403 272.074H196.18C196.716 272.075 197.246 272.153 197.743 272.303C198.497 272.536 199.142 272.931 199.597 273.439C200.052 273.946 200.295 274.543 200.296 275.154C200.291 275.529 200.196 275.9 200.017 276.25L197.977 280.22H197.91H189.233L185.702 287.791L186.706 285.88H191.047C191.727 285.88 192.396 286.005 192.996 286.245C193.595 286.486 194.106 286.833 194.482 287.257C194.858 287.681 195.089 288.167 195.154 288.674C195.219 289.18 195.115 289.691 194.852 290.16L191.155 296.78C190.041 298.773 188.273 300.524 186.016 301.872C183.759 303.219 181.085 304.119 178.241 304.489L177.849 304.539L177.124 306.144L177.498 305.591C177.376 305.81 177.237 306.049 177.111 306.312H186.846C186.846 306.312 184.685 311.031 180.709 311.314C180.387 311.333 180.064 311.325 179.745 311.29H159.572C160.702 312.231 161.972 313.37 163.327 314.708C169.181 314.644 177.696 315.113 179.803 318.173C180.166 318.478 180.497 318.802 180.794 319.144C181.6 320.155 181.866 322.515 181.672 325.922C181.729 329.436 181.335 332.947 180.497 336.405C181.518 337.838 182.499 339.28 183.442 340.729C185.492 343.597 187.34 346.542 188.98 349.553C189.037 349.633 189.083 349.717 189.12 349.803C194.035 358.24 198.348 366.868 202.039 375.649L202.246 376.191C205.038 382.353 207.312 387.951 208.176 391.359L222.811 389.114C223.313 388.989 223.847 388.956 224.37 389.015C224.893 389.075 225.389 389.227 225.818 389.458C226.248 389.689 226.597 389.993 226.839 390.346C227.082 390.698 227.209 391.087 227.21 391.484Z" fill="white"/>
<path d="M176.71 306.716H186.445C186.046 307.538 185.538 308.329 184.928 309.076C183.726 310.485 181.87 311.958 179.416 311.708H149.882C148.734 311.714 147.616 311.434 146.703 310.913C146.501 310.212 146.558 309.484 146.869 308.806C158.798 307.438 171.018 305.965 176.485 305.119L177.516 304.984L176.71 306.716Z" fill="#3FBDF1"/>
<path d="M199.895 275.599C199.89 275.974 199.795 276.345 199.616 276.695L197.581 280.662H188.899L185.333 288.279L184.036 290.713H155.74L162.296 277.345C162.652 276.62 163.297 275.993 164.143 275.551C164.989 275.109 165.997 274.871 167.029 274.871H197.802C198.337 274.872 198.868 274.95 199.364 275.1C199.537 275.153 199.705 275.213 199.868 275.279C199.882 275.38 199.895 275.495 199.895 275.599Z" fill="#FFB703"/>
<path d="M199.9 275.596C199.894 275.97 199.799 276.341 199.621 276.691L197.581 280.658H188.904L191.921 274.53C192.254 273.851 192.896 273.281 193.735 272.92C194.573 272.56 195.555 272.432 196.507 272.559C197.459 272.686 198.321 273.06 198.941 273.615C199.561 274.17 199.901 274.872 199.9 275.596Z" fill="#3FBDF1"/>
<path d="M186.441 306.717C186.441 306.717 183.649 312.858 178.579 311.537C175.427 310.724 175.9 308.375 176.724 306.703L186.441 306.717Z" fill="#3FBDF1"/>
<path d="M179.308 280.659H165.156" stroke="white" stroke-width="4.65" stroke-linecap="round" stroke-linejoin="round"/>
<path d="M177.566 284.65H163.413" stroke="white" stroke-width="4.65" stroke-linecap="round" stroke-linejoin="round"/>
<path d="M188.651 349.961C186.201 345.525 183.342 341.222 180.096 337.082C181.411 331.868 182.307 322.733 179.457 318.588C177.349 315.524 168.843 315.059 162.972 315.123C158.437 310.636 154.772 308.324 154.772 308.324C154.772 308.324 127.475 311.634 121.243 311.661C115.011 311.688 115.016 314.273 115.016 314.273C115.016 314.273 110.675 324.078 105.767 328.949C100.859 333.819 87.6562 339.735 68.6315 342.013C49.6068 344.292 34.6437 341.484 31.2125 340.055C27.7813 338.626 27.6688 340.004 33.8107 349.061C39.9526 358.118 49.4087 364.63 65.2904 366.777C75.086 368.04 85.1297 367.715 94.7438 365.826C94.7438 365.826 119.874 361.084 127.246 357.467C134.617 353.851 135.77 358.768 135.77 358.768L135.049 432.645L154.502 435.55L171.306 375.038L189.228 397.486L207.847 391.756C205.654 383.138 194.393 360.41 188.651 349.961Z" fill="#2E2E2E"/>
<path d="M137.814 251.18C137.415 253.232 136.249 255.157 134.45 256.734C133.069 258.056 131.311 259.131 129.304 259.879C128.833 260.049 128.343 260.189 127.84 260.297C127.84 259.128 127.813 257.938 127.728 256.778C127.408 252.434 126.237 247.91 122.54 244.57C120.762 242.974 118.517 241.706 115.98 240.862C116.052 240.06 116.137 239.265 116.205 238.463C116.398 237.091 116.389 235.707 116.178 234.337C115.939 233.505 115.804 232.659 115.772 231.809C115.813 231.017 115.66 227.977 116.497 227.319C117.895 227.755 119.392 227.984 120.906 227.993C124.296 227.973 126.989 226.416 128.804 224.424C129.471 224.261 130.165 224.165 130.866 224.141C132.919 224.37 126.791 228.506 128.79 228.037C127.489 228.337 126.539 229.8 125.926 230.636C125.026 231.93 124.504 233.454 125.386 234.822C126.251 236.13 128.061 237.256 129.344 238.331C131.074 239.691 132.693 241.128 134.189 242.635C136.558 245.103 138.287 248.133 137.814 251.18Z" fill="#FFB703"/>
<path d="M106.65 239.143C109.874 239.293 113.036 239.873 115.989 240.855C118.524 241.699 120.767 242.968 122.545 244.563C126.242 247.906 127.412 252.426 127.732 256.771C127.818 257.941 127.858 259.13 127.845 260.29C127.777 270.577 125.49 280.756 121.734 290.709C133.397 290.709 144.46 290.709 155.731 290.709H184.036L185.333 288.279L186.369 286.324H190.736C191.417 286.324 192.086 286.45 192.686 286.69C193.286 286.931 193.797 287.279 194.174 287.703C194.551 288.126 194.782 288.614 194.847 289.121C194.912 289.628 194.808 290.138 194.546 290.608L190.849 297.228C189.732 299.22 187.963 300.97 185.705 302.317C183.448 303.663 180.774 304.563 177.93 304.933L177.539 304.987L176.507 305.122C171.041 305.968 158.82 307.441 146.892 308.81C135.981 310.074 125.31 311.243 120.262 311.786C118.348 311.995 116.394 312.15 114.408 312.244C102.624 312.787 90.4572 310.825 87.3051 300.784C85.2518 294.353 85.7021 287.42 85.7967 280.726" stroke="black" stroke-width="4.65" stroke-miterlimit="10"/>
<path d="M163.066 315.413C170.694 315.15 177.53 315.996 180.461 319.568C181.938 321.375 181.578 327.745 180.056 336.63" stroke="black" stroke-width="4.65" stroke-miterlimit="10"/>
<path d="M35.2788 350.949C35.2955 350.964 35.309 350.981 35.3193 351C38.5839 355.981 44.3251 360.282 51.6693 363.292C77.5474 373.889 116.47 361.472 130.47 356.305C131.029 356.099 131.648 356.003 132.27 356.026C132.892 356.05 133.495 356.192 134.024 356.438C134.552 356.685 134.988 357.029 135.289 357.436C135.591 357.844 135.749 358.303 135.747 358.769V438.237L165.696 443.917C166.16 444.006 166.642 444.024 167.116 443.969C167.589 443.915 168.043 443.79 168.449 443.601C168.857 443.412 169.208 443.163 169.483 442.87C169.758 442.577 169.951 442.245 170.05 441.894C170.247 441.213 170.08 440.501 169.585 439.911C169.089 439.321 168.304 438.901 167.398 438.739L154.479 435.554C155.078 432.413 163.841 403.685 171.289 375.042" stroke="black" stroke-width="4.65" stroke-miterlimit="10"/>
<path d="M154.196 307.95C161.851 312.803 167.349 320.266 172.495 326.606C185.036 342.053 194.415 358.866 201.701 376.069C203.903 381.267 205.929 386.518 207.843 391.77L222.468 389.521C223.298 389.319 224.201 389.369 224.983 389.659C225.765 389.948 226.365 390.456 226.654 391.072C226.943 391.689 226.898 392.365 226.529 392.957C226.16 393.55 225.496 394.01 224.679 394.24L193.317 403.004C193.317 403.004 184.14 390.172 171.316 375.028C152.521 352.809 117.79 318.564 108.622 325.868" stroke="black" stroke-width="4.65" stroke-miterlimit="10"/>
<path d="M126.836 231.916C126.836 231.916 157.591 230.322 178.673 199.08C178.673 199.08 185.337 202.521 194.627 213.287C194.627 213.287 168.564 252.881 127.732 263.33" stroke="black" stroke-width="4.65" stroke-miterlimit="10"/>
<path d="M124.053 195.386L125.854 197.435L126.94 198.682C128.041 200.602 129.008 202.563 129.839 204.557L129.893 204.699L131.956 210.597C131.959 210.604 131.959 210.611 131.956 210.617C132.649 211.472 133.605 212.189 134.743 212.711C135.012 212.819 135.263 212.952 135.491 213.105C136.729 214.035 133.464 214.305 132.789 214.612C132.491 214.765 132.246 214.97 132.076 215.208C131.906 215.447 131.815 215.713 131.812 215.983C127.935 228.06 130.429 224.889 128.763 227.575C130.209 226.658 133.802 223.743 133.802 223.743C134.252 223.523 134.676 222.866 134.968 222.539C135.898 221.471 136.698 220.343 137.359 219.169C139.414 215.66 139.888 211.747 138.71 208.019C136.85 202.225 132.514 196.427 124.053 195.386Z" fill="#FFB703"/>
<path d="M123.684 199.03C123.355 200.283 122.56 201.442 121.392 202.373C120.124 203.411 118.647 204.295 117.015 204.992C113.944 206.361 110.527 207.396 107.947 209.243C105.363 211.102 103.817 213.625 103.619 216.304C103.439 219.048 104.75 221.889 105.547 224.458C108.073 232.759 107.262 240.737 105.866 249.093C104.542 256.977 101.724 264.692 96.2571 271.555C89.8089 279.644 79.2227 286.119 67.308 289.442C57.4017 292.21 38.1518 294.664 30.8706 286.965C29.6143 284.535 29.6008 281.754 30.0871 279.135C32.9465 263.772 48.6841 248.004 67.4611 241.614C77.5206 238.189 93.9246 232.928 88.6247 222.462C86.9361 219.162 84.5721 216.314 84.1218 212.866C84.0813 212.553 84.0407 212.239 84.0002 211.905C83.2437 203.816 89.5343 196.138 99.7198 193.367C103.052 192.425 106.615 192.028 110.169 192.203C113.723 192.377 117.186 193.119 120.325 194.378C121.439 194.822 122.437 195.414 123.27 196.124C123.327 196.173 123.378 196.224 123.423 196.279C123.486 196.399 123.537 196.521 123.576 196.647C123.825 197.428 123.862 198.238 123.684 199.03Z" fill="#FFB703"/>
<path d="M127.867 259.943C133.307 259.003 138.08 256.087 139.444 251.827C140.714 247.88 138.706 243.828 135.594 240.653C132.708 237.721 126.696 235.26 127.169 231.101C127.322 229.753 128.214 228.573 129.376 227.528C129.794 227.164 130.227 226.827 130.7 226.483" stroke="black" stroke-width="4.65" stroke-miterlimit="10"/>
<path d="M116.651 227.224L116.398 240.986" stroke="black" stroke-width="4.65" stroke-miterlimit="10"/>
<path d="M86.6612 220.325C84.9816 217.022 82.6086 214.174 82.1583 210.729C82.1133 210.412 82.0727 210.095 82.0412 209.758C81.2802 201.669 87.5753 193.994 97.7563 191.22C101.089 190.279 104.652 189.882 108.207 190.057C111.762 190.231 115.226 190.973 118.366 192.231C119.478 192.677 120.472 193.27 121.302 193.98L121.514 194.173C122.249 194.845 122.783 195.628 123.081 196.468C123.378 197.308 123.432 198.186 123.238 199.043C122.91 200.293 122.121 201.449 120.96 202.38C119.687 203.42 118.208 204.307 116.574 205.009C113.503 206.377 110.09 207.405 107.501 209.253C104.916 211.117 103.374 213.647 103.187 216.331C103.002 219.074 104.317 221.913 105.101 224.488C107.627 232.789 106.821 240.764 105.425 249.117C104.101 257 101.287 264.719 95.811 271.582C89.3629 279.671 78.7811 286.149 66.862 289.469C56.762 292.287 36.9583 294.781 30.0013 286.533C27.6643 283.766 27.5112 280.264 28.1146 277.022C30.974 261.662 46.7206 245.887 65.4886 239.5C75.5661 236.035 91.9701 230.787 86.6612 220.325Z" stroke="black" stroke-width="4.65" stroke-miterlimit="10"/>
<path d="M125.328 210.985C126.295 210.985 127.079 210.398 127.079 209.674C127.079 208.95 126.295 208.363 125.328 208.363C124.36 208.363 123.576 208.95 123.576 209.674C123.576 210.398 124.36 210.985 125.328 210.985Z" fill="black"/>
<path d="M124.918 205.447C124.918 205.447 118.988 207.449 120.865 211.342" stroke="black" stroke-width="4.65" stroke-miterlimit="10"/>
<path d="M130.398 226.548C131.884 226.143 133.469 224.862 134.549 224.023C135.745 223.068 136.812 222.029 137.737 220.919C140.343 217.798 141.704 214.185 141.66 210.505C141.616 206.825 140.169 203.231 137.49 200.146C135.635 198.002 133.163 196.101 130.065 195.023C127.482 194.112 124.593 193.806 121.775 194.146C123.349 195.108 124.762 196.211 125.98 197.429C127.816 199.232 129.101 201.315 129.745 203.53C129.844 203.918 129.929 204.302 130.02 204.693C130.47 206.776 130.722 208.886 132.086 210.591C132.782 211.452 133.743 212.177 134.887 212.705C135.156 212.813 135.407 212.946 135.635 213.099C136.873 214.029 133.608 214.296 132.933 214.602C131.199 215.361 131.843 217.538 131.614 218.799C131.337 220.27 130.749 221.699 129.871 223.032C129.56 223.506 129.207 223.963 128.813 224.401C127.012 226.399 124.31 227.963 120.915 227.977C119.404 227.967 117.91 227.737 116.515 227.303C114.123 226.575 111.984 225.449 110.261 224.01" stroke="black" stroke-width="4.65" stroke-miterlimit="10"/>
<path d="M127.138 219.573C127.138 219.573 123.054 221.316 121.284 217.305" stroke="black" stroke-width="4.65" stroke-miterlimit="10"/>
<path d="M186.107 205.531L196.284 201.85C197.214 201.515 198.027 201.02 198.657 200.408L203.408 195.793C203.955 195.233 204.189 194.536 204.061 193.848C203.933 193.161 203.452 192.538 202.72 192.112C201.989 191.685 201.065 191.489 200.143 191.564C199.222 191.639 198.375 191.979 197.783 192.514L196.914 193.272L198.747 190.026C198.871 189.803 198.93 189.563 198.92 189.321C198.909 189.079 198.829 188.842 198.685 188.626C198.541 188.409 198.337 188.219 198.086 188.067C197.834 187.915 197.543 187.805 197.23 187.744L194.334 188.031L203.385 178.779C204.668 177.467 203.421 175.883 201.543 175.435C199.382 174.919 197.383 175.984 196.041 177.164C190.52 182.031 186.337 187.66 182.451 193.323C181.145 195.226 179.886 197.145 178.673 199.08" stroke="black" stroke-width="4.65" stroke-linejoin="round"/>
<path d="M194.339 188.031C194.339 188.031 188.436 193.528 196.919 193.272" stroke="black" stroke-width="4.65" stroke-miterlimit="10"/>
<path d="M177.903 304.929C177.903 304.929 173.526 310.245 178.624 311.549C183.721 312.854 186.508 306.719 186.508 306.719H176.67" stroke="black" stroke-width="4.65" stroke-miterlimit="10"/>
<path d="M179.47 311.705H159.171" stroke="black" stroke-width="4.65" stroke-miterlimit="10"/>
<path d="M199.963 275.596C199.957 275.97 199.863 276.341 199.684 276.691L197.648 280.658H188.971L191.984 274.53C192.317 273.851 192.96 273.281 193.798 272.92C194.637 272.56 195.618 272.432 196.57 272.559C197.522 272.686 198.384 273.06 199.004 273.615C199.624 274.17 199.964 274.872 199.963 275.596Z" stroke="black" stroke-width="4.65" stroke-miterlimit="10"/>
<path d="M157.595 280.659L152.642 290.706L160.329 274.989C160.684 274.263 161.33 273.636 162.178 273.193C163.027 272.75 164.036 272.514 165.07 272.515H195.843" stroke="black" stroke-width="4.65" stroke-miterlimit="10"/>
<path d="M184.045 290.707L188.971 280.659" stroke="black" stroke-width="4.65" stroke-miterlimit="10"/>
<path d="M27.9977 282.081C14.4215 309.44 20.6445 336.63 20.6445 336.63C41.1506 345.171 70.2258 344.43 91.0516 336.923C98.4184 334.261 106.361 330.25 109.577 324.371C111.936 320.067 114.39 315.797 116.412 311.432" stroke="black" stroke-width="4.65" stroke-miterlimit="10"/>
<path d="M16.29 367.445H135.765" stroke="black" stroke-width="4.65" stroke-miterlimit="10"/>
<path d="M121.743 290.717L120.455 293.976" stroke="black" stroke-width="4.65" stroke-miterlimit="10"/>
<path d="M35.3194 351C35.3194 351 30.06 343.976 28.3489 339.301" stroke="black" stroke-width="4.65" stroke-miterlimit="10"/>
<path d="M61.2785 152.495V222.394H26.192C27.3479 219.628 28.316 216.831 29.0964 214.001C31.4919 205.292 32.2034 196.299 31.8296 187.215C31.1317 169.786 40.6328 160.19 53.2544 155.083C55.8215 154.045 58.507 153.178 61.2785 152.495Z" stroke="#CCDDE2" stroke-width="4.65" stroke-miterlimit="10"/>
<path d="M53.2543 155.083V214.001H29.0828C31.4783 205.292 32.1898 196.299 31.816 187.215C31.1316 169.786 40.6327 160.197 53.2543 155.083Z" stroke="#CCDDE2" stroke-width="4.65" stroke-miterlimit="10"/>
</svg>
